<?xml version="1.0" encoding="UTF-8"?>
<svg id="Layer_1" data-name="Layer 1" xmlns="http://www.w3.org/2000/svg" viewBox="0 0 1024 1025.26">
  <defs>
    <style>
      .cls-1 {
        fill: #fff;
        stroke-width: 0px;
      }
    </style>
  </defs>
  <path class="cls-1" d="m359.18,1.99c72.84,0,142.65-5.37,211.22,1.53,66.43,6.69,112.21,50.29,135.05,113.04,42.6,117.03,83.67,234.64,124.01,352.47,17.84,52.11-11.91,91.63-68.25,92.34-69.72.88-139.45.21-209.18.25-71.19.04-88.54,12.61-112.61,81.32-28.94,82.62-57.9,165.23-86.88,247.83-29.93,85.29-93.16,130.32-183.65,130.6-54.9.17-109.8.03-168.87.03,28.68-82.67,56.08-161.94,83.68-241.13,22.16-63.57,44.44-127.11,66.88-190.58,30.43-86.07,91.7-130.05,183.34-130.92,59.35-.56,118.71-.11,184.49-.11C464.23,303.31,411.74,152.76,359.18,1.99Z"/>
  <path class="cls-1" d="m589.99,665.4c73.33,0,141.98-4.96,209.56,1.46,61.82,5.87,106.48,44.84,133.6,101.59,4.35,9.09,7.84,18.64,11.17,28.17,25.51,72.96,50.89,145.97,79.68,228.64-81.8-4.3-158.75-3.74-234.23-13.99-46.84-6.36-85.35-40.18-103.49-84.5-34.75-84.87-63.78-172.09-96.29-261.37Z"/>
</svg>